<svg width="50" height="50" viewBox="0 0 50 50" fill="none" xmlns="http://www.w3.org/2000/svg">
<circle cx="25" cy="25" r="25" fill="#DB4664"/>
<path d="M22.8825 19.9128C22.7517 19.8196 22.5977 19.7643 22.4375 19.7528C22.2773 19.7413 22.117 19.7742 21.9743 19.8477C21.8315 19.9213 21.7117 20.0327 21.6281 20.1698C21.5444 20.3069 21.5001 20.4644 21.5 20.625V29.375C21.5001 29.5356 21.5444 29.6931 21.6281 29.8302C21.7117 29.9673 21.8315 30.0788 21.9743 30.1523C22.117 30.2259 22.2773 30.2587 22.4375 30.2472C22.5977 30.2358 22.7517 30.1804 22.8825 30.0873L29.0075 25.7123C29.1209 25.6313 29.2134 25.5245 29.2772 25.4006C29.341 25.2767 29.3742 25.1394 29.3742 25C29.3742 24.8607 29.341 24.7233 29.2772 24.5994C29.2134 24.4756 29.1209 24.3687 29.0075 24.2878L22.8825 19.9128V19.9128Z" fill="white"/>
<path d="M11 18C11 17.0717 11.3687 16.1815 12.0251 15.5251C12.6815 14.8687 13.5717 14.5 14.5 14.5H35.5C36.4283 14.5 37.3185 14.8687 37.9749 15.5251C38.6313 16.1815 39 17.0717 39 18V32C39 32.9283 38.6313 33.8185 37.9749 34.4749C37.3185 35.1313 36.4283 35.5 35.5 35.5H14.5C13.5717 35.5 12.6815 35.1313 12.0251 34.4749C11.3687 33.8185 11 32.9283 11 32V18ZM37.25 18C37.25 17.5359 37.0656 17.0908 36.7374 16.7626C36.4092 16.4344 35.9641 16.25 35.5 16.25H14.5C14.0359 16.25 13.5908 16.4344 13.2626 16.7626C12.9344 17.0908 12.75 17.5359 12.75 18V32C12.75 32.4641 12.9344 32.9092 13.2626 33.2374C13.5908 33.5656 14.0359 33.75 14.5 33.75H35.5C35.9641 33.75 36.4092 33.5656 36.7374 33.2374C37.0656 32.9092 37.25 32.4641 37.25 32V18Z" fill="white"/>
</svg>
