<svg width="50" height="50" viewBox="0 0 50 50" fill="none" xmlns="http://www.w3.org/2000/svg">
<circle cx="25" cy="25" r="25" fill="#DB4664"/>
<g clip-path="url(#clip0_25:666)">
<path d="M11 15.375C11 14.6788 11.2766 14.0111 11.7688 13.5188C12.2611 13.0266 12.9288 12.75 13.625 12.75H32.875C33.5712 12.75 34.2389 13.0266 34.7312 13.5188C35.2234 14.0111 35.5 14.6788 35.5 15.375V33.799C35.5 34.324 35.4125 34.9435 35.0835 35.5H36.375C36.6071 35.5 36.8296 35.4078 36.9937 35.2437C37.1578 35.0796 37.25 34.8571 37.25 34.625V18.875C37.25 18.6429 37.3422 18.4204 37.5063 18.2563C37.6704 18.0922 37.8929 18 38.125 18C38.3571 18 38.5796 18.0922 38.7437 18.2563C38.9078 18.4204 39 18.6429 39 18.875V34.625C39 35.3212 38.7234 35.9889 38.2312 36.4812C37.7389 36.9734 37.0712 37.25 36.375 37.25H13.6198C13.2753 37.25 12.9342 37.1821 12.616 37.0501C12.2978 36.9181 12.0088 36.7247 11.7655 36.4808C11.5221 36.237 11.3293 35.9476 11.1979 35.6291C11.0666 35.3107 10.9993 34.9695 11 34.625V15.375ZM32 35.5C32.6475 35.5 33.1445 35.1308 33.4928 34.7283C33.6538 34.5428 33.75 34.24 33.75 33.799V15.375C33.75 15.1429 33.6578 14.9204 33.4937 14.7563C33.3296 14.5922 33.1071 14.5 32.875 14.5H13.625C13.3929 14.5 13.1704 14.5922 13.0063 14.7563C12.8422 14.9204 12.75 15.1429 12.75 15.375V34.625C12.75 35.1115 13.1403 35.5 13.6198 35.5H32Z" fill="white"/>
<path d="M14.5 16.25H32V19.75H14.5V16.25ZM14.5 21.5H21.5V26.75H14.5V21.5ZM14.5 28.5H21.5V30.25H14.5V28.5ZM14.5 32H21.5V33.75H14.5V32ZM23.25 21.5H26.75V23.25H23.25V21.5ZM28.5 21.5H32V23.25H28.5V21.5ZM23.25 25H26.75V26.75H23.25V25ZM28.5 25H32V26.75H28.5V25ZM23.25 28.5H26.75V30.25H23.25V28.5ZM28.5 28.5H32V30.25H28.5V28.5ZM23.25 32H26.75V33.75H23.25V32ZM28.5 32H32V33.75H28.5V32Z" fill="white"/>
</g>
<defs>
<clipPath id="clip0_25:666">
<rect width="28" height="28" fill="white" transform="translate(11 11)"/>
</clipPath>
</defs>
</svg>
