<svg width="50" height="50" viewBox="0 0 50 50" fill="none" xmlns="http://www.w3.org/2000/svg">
<circle cx="25" cy="25" r="25" fill="#DB4664"/>
<path d="M25 25.4678C26.5913 25.4678 28.1174 24.811 29.2426 23.642C30.3679 22.4729 31 20.8873 31 19.2339C31 17.5806 30.3679 15.995 29.2426 14.8259C28.1174 13.6568 26.5913 13 25 13C23.4087 13 21.8826 13.6568 20.7574 14.8259C19.6321 15.995 19 17.5806 19 19.2339C19 20.8873 19.6321 22.4729 20.7574 23.642C21.8826 24.811 23.4087 25.4678 25 25.4678V25.4678ZM29 19.2339C29 20.3361 28.5786 21.3932 27.8284 22.1726C27.0783 22.952 26.0609 23.3899 25 23.3899C23.9391 23.3899 22.9217 22.952 22.1716 22.1726C21.4214 21.3932 21 20.3361 21 19.2339C21 18.1317 21.4214 17.0746 22.1716 16.2952C22.9217 15.5158 23.9391 15.078 25 15.078C26.0609 15.078 27.0783 15.5158 27.8284 16.2952C28.5786 17.0746 29 18.1317 29 19.2339V19.2339ZM37 35.8577C37 37.9357 35 37.9357 35 37.9357H15C15 37.9357 13 37.9357 13 35.8577C13 33.7797 15 27.5458 25 27.5458C35 27.5458 37 33.7797 37 35.8577ZM35 35.8494C34.998 35.3382 34.692 33.8005 33.336 32.3916C32.032 31.0368 29.578 29.6238 25 29.6238C20.42 29.6238 17.968 31.0368 16.664 32.3916C15.308 33.8005 15.004 35.3382 15 35.8494H35Z" fill="white"/>
</svg>
