<svg width="50" height="50" viewBox="0 0 50 50" fill="none" xmlns="http://www.w3.org/2000/svg">
<circle cx="25" cy="25" r="25" fill="#DB4664"/>
<path d="M37.1875 36.8577C37.1875 36.8577 39 36.8577 39 34.9529C39 33.0481 37.1875 27.3336 29.9375 27.3336C22.6875 27.3336 20.875 33.0481 20.875 34.9529C20.875 36.8577 22.6875 36.8577 22.6875 36.8577H37.1875ZM22.7274 34.9529C22.714 34.9509 22.7007 34.9484 22.6875 34.9452C22.6893 34.4424 22.9902 32.9833 24.065 31.669C25.0655 30.4366 26.8236 29.2384 29.9375 29.2384C33.0496 29.2384 34.8077 30.4385 35.81 31.669C36.8848 32.9833 37.1839 34.4443 37.1875 34.9452L37.173 34.9491C37.1646 34.9506 37.1561 34.9518 37.1476 34.9529H22.7274V34.9529ZM29.9375 23.524C30.8989 23.524 31.8209 23.1227 32.5008 22.4082C33.1806 21.6938 33.5625 20.7248 33.5625 19.7144C33.5625 18.704 33.1806 17.7351 32.5008 17.0206C31.8209 16.3062 30.8989 15.9048 29.9375 15.9048C28.9761 15.9048 28.0541 16.3062 27.3742 17.0206C26.6944 17.7351 26.3125 18.704 26.3125 19.7144C26.3125 20.7248 26.6944 21.6938 27.3742 22.4082C28.0541 23.1227 28.9761 23.524 29.9375 23.524ZM35.375 19.7144C35.375 20.4648 35.2344 21.2079 34.9611 21.9012C34.6878 22.5945 34.2873 23.2245 33.7824 23.7551C33.2775 24.2858 32.678 24.7067 32.0183 24.9938C31.3586 25.281 30.6516 25.4288 29.9375 25.4288C29.2234 25.4288 28.5164 25.281 27.8567 24.9938C27.197 24.7067 26.5975 24.2858 26.0926 23.7551C25.5877 23.2245 25.1872 22.5945 24.9139 21.9012C24.6406 21.2079 24.5 20.4648 24.5 19.7144C24.5 18.1989 25.0729 16.7454 26.0926 15.6737C27.1123 14.6021 28.4954 14 29.9375 14C31.3796 14 32.7627 14.6021 33.7824 15.6737C34.8021 16.7454 35.375 18.1989 35.375 19.7144V19.7144ZM22.5715 27.867C21.8465 27.6271 21.0991 27.4693 20.3421 27.3965C19.9168 27.354 19.4898 27.333 19.0625 27.3336C11.8125 27.3336 10 33.0481 10 34.9529C10 36.2234 10.6036 36.8577 11.8125 36.8577H19.454C19.1853 36.263 19.0513 35.611 19.0625 34.9529C19.0625 33.029 19.7458 31.0632 21.0381 29.4213C21.4786 28.8613 21.9915 28.3375 22.5715 27.867ZM18.9175 29.2384C17.8448 30.9323 17.2653 32.9182 17.25 34.9529H11.8125C11.8125 34.4576 12.1097 32.9909 13.19 31.669C14.1778 30.4575 15.8943 29.2765 18.9175 29.2403V29.2384ZM12.7188 20.6668C12.7188 19.1513 13.2916 17.6978 14.3114 16.6261C15.3311 15.5545 16.7141 14.9524 18.1562 14.9524C19.5984 14.9524 20.9814 15.5545 22.0011 16.6261C23.0209 17.6978 23.5938 19.1513 23.5938 20.6668C23.5938 22.1824 23.0209 23.6359 22.0011 24.7075C20.9814 25.7792 19.5984 26.3812 18.1562 26.3812C16.7141 26.3812 15.3311 25.7792 14.3114 24.7075C13.2916 23.6359 12.7188 22.1824 12.7188 20.6668V20.6668ZM18.1562 16.8572C17.1948 16.8572 16.2728 17.2586 15.593 17.973C14.9132 18.6875 14.5312 19.6564 14.5312 20.6668C14.5312 21.6772 14.9132 22.6462 15.593 23.3606C16.2728 24.0751 17.1948 24.4764 18.1562 24.4764C19.1177 24.4764 20.0397 24.0751 20.7195 23.3606C21.3993 22.6462 21.7812 21.6772 21.7812 20.6668C21.7812 19.6564 21.3993 18.6875 20.7195 17.973C20.0397 17.2586 19.1177 16.8572 18.1562 16.8572Z" fill="white"/>
</svg>
