<svg width="50" height="50" viewBox="0 0 50 50" fill="none" xmlns="http://www.w3.org/2000/svg">
<circle cx="25" cy="25" r="25" fill="#DB4664"/>
<path d="M14 20.689C13.9999 18.7588 14.4599 16.8587 15.3389 15.1582C16.2179 13.4578 17.4885 12.01 19.0372 10.9441C20.586 9.87813 22.3647 9.22728 24.2145 9.04962C26.0643 8.87196 27.9277 9.17302 29.6383 9.92592C31.3489 10.6788 32.8534 11.8601 34.0174 13.3643C35.1815 14.8686 35.969 16.6489 36.3094 18.5463C36.6499 20.4438 36.5328 22.3993 35.9687 24.2383C35.4045 26.0773 34.4108 27.7425 33.0763 29.0853C32.6956 29.4671 32.4031 29.8645 32.2269 30.2912L30.7981 33.7374C30.7256 33.912 30.6055 34.0608 30.4526 34.1653C30.2996 34.2699 30.1206 34.3256 29.9375 34.3257C30.1861 34.3257 30.4246 34.4283 30.6004 34.611C30.7762 34.7936 30.875 35.0414 30.875 35.2997C30.875 35.5581 30.7762 35.8058 30.6004 35.9885C30.4246 36.1712 30.1861 36.2738 29.9375 36.2738C30.1861 36.2738 30.4246 36.3764 30.6004 36.5591C30.7762 36.7417 30.875 36.9895 30.875 37.2478C30.875 37.5062 30.7762 37.7539 30.6004 37.9366C30.4246 38.1193 30.1861 38.2219 29.9375 38.2219L29.5175 39.0927C29.3619 39.4162 29.1227 39.6884 28.8266 39.8786C28.5306 40.0689 28.1894 40.1698 27.8413 40.17H22.6588C22.3106 40.1698 21.9695 40.0689 21.6734 39.8786C21.3773 39.6884 21.1381 39.4162 20.9825 39.0927L20.5625 38.2219C20.3139 38.2219 20.0754 38.1193 19.8996 37.9366C19.7238 37.7539 19.625 37.5062 19.625 37.2478C19.625 36.9895 19.7238 36.7417 19.8996 36.5591C20.0754 36.3764 20.3139 36.2738 20.5625 36.2738C20.3139 36.2738 20.0754 36.1712 19.8996 35.9885C19.7238 35.8058 19.625 35.5581 19.625 35.2997C19.625 35.0414 19.7238 34.7936 19.8996 34.611C20.0754 34.4283 20.3139 34.3257 20.5625 34.3257C20.3791 34.326 20.1997 34.2705 20.0464 34.1659C19.893 34.0613 19.7726 33.9123 19.7 33.7374L18.2731 30.2892C18.0688 29.8339 17.7802 29.4248 17.4238 29.0853C16.3393 27.9966 15.4772 26.692 14.8889 25.2494C14.3007 23.8068 13.9983 22.2557 14 20.689V20.689ZM25.25 10.9485C23.3828 10.9481 21.5581 11.5271 20.0096 12.6112C18.4611 13.6953 17.2595 15.2351 16.5587 17.0332C15.858 18.8314 15.6899 20.8061 16.0762 22.7041C16.4625 24.6021 17.3855 26.337 18.7269 27.6866C19.22 28.1814 19.6906 28.7853 19.9944 29.5197L21.1813 32.3776H29.3225L30.5075 29.5197C30.8113 28.7853 31.2819 28.1814 31.775 27.6866C33.1165 26.3369 34.0395 24.6018 34.4258 22.7036C34.812 20.8054 34.6438 18.8306 33.9428 17.0323C33.2418 15.2341 32.0399 13.6943 30.4911 12.6104C28.9424 11.5264 27.1174 10.9478 25.25 10.9485V10.9485Z" fill="white"/>
</svg>
