<svg width="50" height="50" viewBox="0 0 50 50" fill="none" xmlns="http://www.w3.org/2000/svg">
<circle cx="25" cy="25" r="25" fill="#DB4664"/>
<path d="M23.1333 19.364L18.6513 32H14.7993L10.3173 19.364H13.5933L16.7253 28.904L19.8753 19.364H23.1333ZM27.4977 19.364V32H24.4197V19.364H27.4977ZM39.3583 23.432C39.3583 24.164 39.1903 24.836 38.8543 25.448C38.5183 26.048 38.0023 26.534 37.3063 26.906C36.6103 27.278 35.7463 27.464 34.7143 27.464H32.8063V32H29.7283V19.364H34.7143C35.7223 19.364 36.5743 19.538 37.2703 19.886C37.9663 20.234 38.4883 20.714 38.8363 21.326C39.1843 21.938 39.3583 22.64 39.3583 23.432ZM34.4803 25.016C35.0683 25.016 35.5063 24.878 35.7943 24.602C36.0823 24.326 36.2263 23.936 36.2263 23.432C36.2263 22.928 36.0823 22.538 35.7943 22.262C35.5063 21.986 35.0683 21.848 34.4803 21.848H32.8063V25.016H34.4803Z" fill="white"/>
</svg>
